# xmcd
#
# Track frame offsets: 
#        150
#        11350
#        40512
#        65525
#        95917
#        128775
#        161245
#        183370
#        202512
#        228997
#        256642
#        302700
#        329945
#
# Disc length: 4631 seconds
#
# Revision: 2
# Processed by: cddbd v1.5.2PL0 Copyright (c) Steve Scherf et al.
# Submitted via: ExactAudioCopy v0.95a4
#
DISCID=a812150d
DTITLE=Jimmy Rogers With Ronnie Earl And The Broadcasters - Jimmy Roge
DTITLE=rs With Ronnie Earl And The Broadcasters
DYEAR=1991
DGENRE=Blues
TTITLE0=Okie Dokie Stomp
TTITLE1=Blues In D-Natural
TTITLE2=Same Old Blues
TTITLE3=Rock This House
TTITLE4=Gold Tailed Bird
TTITLE5=Why Did You Do It?
TTITLE6=Can't Sleep For Worrying
TTITLE7=Walking By Myself
TTITLE8=Left Me With A Broken Heart
TTITLE9=Got My Mojo Working
TTITLE10=You Can Read My Letter But You Can't Read My Mind
TTITLE11=Shake Your Money Maker
TTITLE12=You're Sweet
EXTD=
EXTT0=
EXTT1=
EXTT2=
EXTT3=
EXTT4=
EXTT5=
EXTT6=
EXTT7=
EXTT8=
EXTT9=
EXTT10=
EXTT11=
EXTT12=
PLAYORDER=
